<?xml version="1.0" encoding="utf-8" ?>
<svg xmlns="http://www.w3.org/2000/svg" xmlns:xlink="http://www.w3.org/1999/xlink" width="1024" height="1024">
	<path fill="#01526A" d="M0 0L1024 0L1024 1024L0 1024L0 0Z"/>
	<path fill="#000312" d="M711.946 364.256C714.642 370.72 713.584 382.038 713.442 389.118L712.36 388.769L711.768 386.715C712.177 379.249 711.989 371.732 711.946 364.256Z"/>
	<path fill="#FEF5C1" d="M285.415 342.042C286.024 342.154 286.634 342.267 287.234 342.419C288.659 342.781 289.679 343.688 290.312 345.022C290.863 346.186 290.945 347.413 290.496 348.625C289.766 350.595 288.498 351.203 286.692 351.927C284.865 351.551 283.364 351.104 282.203 349.54C281.344 348.383 281.036 347.036 281.453 345.64C282.066 343.589 283.636 342.884 285.415 342.042Z"/>
	<path fill="#FEF5C1" d="M738.977 404.989C740.682 404.866 741.68 404.858 743.245 405.583C744.082 406.567 744.589 407.042 744.532 408.444C744.425 411.08 742.362 412.942 740.47 414.453C739.069 414.525 737.504 414.67 736.273 413.843C735.386 413.248 734.86 412.351 734.842 411.272C734.795 408.506 737.079 406.599 738.977 404.989Z"/>
	<path fill="#140F2F" d="M572.752 835.397C573.497 835.783 574.192 836.105 574.847 836.636C571.262 853.246 565.061 867.535 554.549 880.992L553.569 880.626C563.664 867.036 569.576 852 572.752 835.397Z"/>
	<path fill="#210A39" d="M574.456 794.253C575.168 795.152 575.946 796.04 576.594 796.983C577.53 810.354 576.938 823.386 574.847 836.636C574.192 836.105 573.497 835.783 572.752 835.397C574.886 821.456 575.111 808.343 574.456 794.253Z"/>
	<path fill="#FFBE5E" d="M708.78 388.899C709.448 377.441 709.252 363.258 711.312 352.163L711.946 364.256C711.989 371.732 712.177 379.249 711.768 386.715C711.448 390.98 711.32 395.44 709.963 399.526C708.353 397.4 708.848 391.618 708.78 388.899Z"/>
	<path fill="#FEF5C1" d="M321.635 286.547C322.642 286.415 323.685 286.332 324.701 286.421C326.286 286.56 327.744 287.585 328.665 288.856C329.596 290.143 329.861 291.745 329.572 293.285C329.1 295.801 327.815 297.03 325.786 298.445C325.106 298.473 324.424 298.499 323.744 298.474C322.017 298.41 320.483 297.612 319.361 296.296C318.329 295.087 317.891 293.535 318.054 291.966C318.322 289.376 319.645 288.055 321.635 286.547Z"/>
	<path fill="#210A39" d="M711.768 386.715L712.36 388.769L713.442 389.118C713.702 396.683 712.769 404.269 707.454 410.14C703.5 414.509 697.766 417.059 691.903 417.342C687.749 417.543 683.958 416.551 680.891 413.644C678.667 411.535 677.868 409.087 677.106 406.201C678.771 400.691 681.483 397.137 686.764 394.446C691.41 392.08 698.013 390.941 702.938 393.272C703.678 393.623 704.097 394.206 704.62 394.805C697.942 393.196 690.992 392.411 684.871 396.332C681.985 398.181 679.675 400.98 679.004 404.4Q678.908 404.871 678.863 405.349Q678.819 405.828 678.825 406.309Q678.832 406.789 678.89 407.266Q678.948 407.743 679.056 408.212Q679.165 408.68 679.323 409.134Q679.481 409.587 679.686 410.022Q679.892 410.456 680.143 410.866Q680.394 411.276 680.687 411.657C682.531 414.066 685.378 415.372 688.341 415.733C693.341 416.344 699.282 414.392 703.115 411.171C706.395 408.415 709.432 403.85 709.963 399.526C711.32 395.44 711.448 390.98 711.768 386.715Z"/>
	<path fill="#FEF5C1" d="M729.105 432.007C730.211 431.992 731.491 432.028 732.559 432.34C733.809 432.706 734.965 433.612 735.541 434.786C736.331 436.394 735.937 438.231 735.24 439.785C733.702 443.213 731.304 444.88 727.869 446.104C726.871 446.059 725.866 446.008 724.912 445.687C723.439 445.19 722.107 444.37 721.518 442.85C720.998 441.508 721.227 440.141 721.732 438.846C723.112 435.309 725.717 433.415 729.105 432.007Z"/>
	<path fill="#FEF5C1" d="M299.026 382.56C302.341 382.333 305.048 382.329 308.028 383.985C312.196 386.302 313.603 390.603 314.733 394.912C314.466 396.113 314.192 397.32 313.787 398.483C312.325 402.689 309.802 404.529 305.928 406.418C303.624 406.591 301.283 406.816 299.041 406.117Q298.429 405.93 297.84 405.681Q297.251 405.433 296.689 405.125Q296.128 404.818 295.601 404.456Q295.074 404.093 294.587 403.679Q294.1 403.265 293.657 402.803Q293.214 402.341 292.821 401.837Q292.427 401.333 292.087 400.791Q291.746 400.249 291.463 399.676Q291.194 399.121 290.982 398.541Q290.771 397.961 290.619 397.362Q290.468 396.764 290.378 396.153Q290.288 395.542 290.261 394.926Q290.234 394.309 290.27 393.693Q290.305 393.077 290.403 392.467Q290.502 391.858 290.661 391.261Q290.821 390.665 291.04 390.088C292.523 386.257 295.422 384.203 299.026 382.56Z"/>
	<path fill="#EF8B27" d="M708.78 388.899C708.848 391.618 708.353 397.4 709.963 399.526C709.432 403.85 706.395 408.415 703.115 411.171C699.282 414.392 693.341 416.344 688.341 415.733C685.378 415.372 682.531 414.066 680.687 411.657Q680.394 411.276 680.143 410.866Q679.892 410.456 679.686 410.022Q679.481 409.588 679.323 409.134Q679.165 408.68 679.056 408.212Q678.948 407.743 678.89 407.266Q678.832 406.789 678.825 406.309Q678.819 405.828 678.863 405.349Q678.908 404.871 679.004 404.4C679.675 400.98 681.985 398.181 684.871 396.332C690.992 392.411 697.942 393.196 704.62 394.805C705.738 395.697 707.449 396.395 708.729 397.081C708.668 394.343 708.671 391.636 708.78 388.899Z"/>
	<defs>
		<linearGradient id="gradient_0" gradientUnits="userSpaceOnUse" x1="333.42224" y1="364.33798" x2="381.15302" y2="280.1412">
			<stop offset="0" stop-color="#E39826"/>
			<stop offset="1" stop-color="#FAC56B"/>
		</linearGradient>
	</defs>
	<path fill="url(#gradient_0)" d="M361.565 265.33C362.44 266.115 362.469 266.855 362.572 267.948C363.129 273.856 363.075 279.822 363.246 285.75Q363.846 302.384 364.149 319.026C364.392 329.736 365.66 343.363 364.448 353.793C363.98 357.824 363.11 361.65 360.359 364.783C357.413 368.138 352.207 370.579 347.751 370.786C342.259 371.041 337.777 368.367 333.858 364.826C331.648 362.206 330.174 359.722 329.538 356.309Q329.38 355.433 329.308 354.545Q329.235 353.657 329.249 352.767Q329.263 351.876 329.363 350.991Q329.464 350.106 329.649 349.235Q329.835 348.364 330.104 347.515Q330.373 346.666 330.723 345.847Q331.073 345.028 331.501 344.247Q331.929 343.466 332.43 342.73Q332.951 341.978 333.543 341.28Q334.135 340.583 334.794 339.948Q335.452 339.312 336.17 338.745Q336.888 338.178 337.659 337.685Q338.43 337.191 339.245 336.777Q340.061 336.362 340.914 336.03Q341.766 335.698 342.647 335.452Q343.529 335.206 344.43 335.048C350.436 333.965 354.674 336.031 359.464 339.298Q359.709 315.758 360.356 292.226C360.49 284.616 359.674 272.172 361.565 265.33Z"/>
	<path fill="#210A39" d="M568.16 778.932C564.227 779.365 559.727 778.814 555.75 778.557C530.992 776.959 508.064 771.33 484.067 765.413C463.836 760.425 443.291 755.218 423.769 747.893C414.017 744.234 404.894 739.658 395.811 734.583C389.799 731.224 383.761 727.799 377.972 724.066C372.846 720.759 348.532 703.786 347.182 699.02C363.77 712.505 380.297 723.516 399.753 732.428C403.67 734.222 408.199 736.755 412.472 737.252C428.516 744.377 452.646 750.37 470.43 750.589C470.975 751.814 470.942 752.015 472.27 752.488C476.561 754.012 483.761 754.737 488.313 754.43C515.51 755.452 541.395 754.736 567.336 745.357L568.718 747.006C570.282 756.809 573.349 766.473 574.362 776.36C575.619 783.074 576.46 790.148 576.594 796.983C575.946 796.04 575.168 795.152 574.456 794.253C573.595 790.541 574.766 782.947 572.416 780.143C571.328 778.843 569.723 779.086 568.16 778.932Z"/>
	<path fill="#FEF5C1" d="M584.809 741.548L586.965 740.718C588.249 748.983 590.887 757.631 591.295 765.938C595.238 788.87 595.669 828.594 586.559 850.057C584.622 856.097 582.028 861.693 579.113 867.317C561.52 896.09 533.657 915.042 500.964 922.941C487.954 926.084 458.789 928.483 446.677 922.095L447.062 921.479C436.49 918.707 426.937 914.413 417.095 909.769Q411.661 906.605 406.58 902.902C388.674 889.798 375.471 870.662 372.102 848.505C369.149 829.075 373.598 807.344 385.403 791.431Q386.339 790.183 387.334 788.983Q388.33 787.782 389.383 786.632Q390.436 785.481 391.545 784.384Q392.653 783.287 393.814 782.245Q394.975 781.204 396.186 780.22Q397.397 779.237 398.654 778.314Q399.911 777.391 401.213 776.531Q402.514 775.671 403.856 774.876Q405.197 774.081 406.577 773.353Q407.956 772.625 409.369 771.965Q410.782 771.305 412.226 770.715Q413.67 770.126 415.141 769.608Q416.612 769.089 418.107 768.644Q419.602 768.199 421.117 767.827Q422.632 767.456 424.163 767.159Q425.694 766.862 427.238 766.641C445.776 764.09 460.177 769.997 474.737 781.076C480.11 782.708 485.131 788.248 489.089 792.096C491.683 793.911 493.961 796.095 496.422 798.08C512.18 810.792 531.847 828.647 541.893 846.431C546.266 854.171 549.222 863.49 550.798 872.224C551.378 875.435 550.524 878.83 551.456 881.914L552.155 882.11L553.569 880.626L554.549 880.992C565.061 867.535 571.262 853.246 574.847 836.636C576.938 823.386 577.53 810.354 576.594 796.983C576.46 790.148 575.619 783.074 574.362 776.36C573.349 766.473 570.282 756.809 568.718 747.006C574.135 745.333 579.466 743.441 584.809 741.548Z"/>
	<path fill="#210A39" d="M584.809 741.548L586.965 740.718C588.249 748.983 590.887 757.631 591.295 765.938C595.238 788.87 595.669 828.594 586.559 850.057C584.622 856.097 582.028 861.693 579.113 867.317C561.52 896.09 533.657 915.042 500.964 922.941C487.954 926.084 458.789 928.483 446.677 922.095L447.062 921.479C452.056 922.153 456.901 923.259 461.952 923.714C479.274 925.275 496.675 922.19 512.907 916.167C535.962 907.614 558.312 892.753 572.006 872.017C576.088 865.836 579.229 859.081 582.319 852.367C591.523 823.215 591.897 797.212 588.907 767.176C587.496 758.642 586.375 750.056 584.809 741.548Z"/>
	<path fill="#210A39" d="M474.737 781.076C480.11 782.708 485.131 788.248 489.089 792.096C491.683 793.911 493.961 796.095 496.422 798.08C512.18 810.792 531.847 828.647 541.893 846.431C546.266 854.171 549.222 863.49 550.798 872.224C551.378 875.435 550.524 878.83 551.456 881.914L552.155 882.11L553.569 880.626L554.549 880.992C539.763 900.036 517.108 912.761 493.503 917.042C465.758 922.075 435.524 916.3 412.314 900.044C396.055 888.656 382.697 872.433 379.206 852.425C376.659 845.247 376.837 835.475 377.758 828.017C378.887 838.305 381.066 847.539 386.589 856.424Q387.344 857.612 388.156 858.762Q388.968 859.911 389.835 861.02Q390.702 862.128 391.623 863.193Q392.544 864.257 393.516 865.276Q394.487 866.294 395.508 867.263Q396.528 868.232 397.595 869.15Q398.662 870.069 399.773 870.933Q400.883 871.798 402.035 872.607Q403.186 873.416 404.376 874.168Q405.566 874.92 406.792 875.612Q408.017 876.305 409.275 876.937Q410.532 877.568 411.82 878.137Q413.107 878.706 414.421 879.212Q415.734 879.717 417.071 880.158Q418.408 880.598 419.765 880.972Q421.121 881.347 422.495 881.654Q423.854 881.952 425.227 882.184Q426.599 882.416 427.982 882.58Q429.364 882.745 430.752 882.842Q432.141 882.938 433.532 882.967Q434.924 882.996 436.315 882.957Q437.707 882.918 439.094 882.811Q440.482 882.703 441.863 882.529Q443.244 882.354 444.615 882.112Q445.985 881.87 447.342 881.562Q448.7 881.253 450.04 880.879Q451.381 880.504 452.702 880.065Q454.022 879.625 455.32 879.122Q456.618 878.618 457.889 878.052Q459.161 877.486 460.403 876.859Q461.645 876.231 462.856 875.543Q464.066 874.856 465.241 874.11C479.218 865.249 488.645 850.55 492.08 834.47C495.463 818.631 491.941 804.068 483.236 790.648C480.536 787.353 477.592 784.237 474.737 781.076Z"/>
	<path fill="#AB547D" d="M474.737 781.076C480.11 782.708 485.131 788.248 489.089 792.096C504.541 810.806 513.832 827.124 511.331 852.414Q511.18 853.879 510.959 855.335Q510.737 856.791 510.445 858.235Q510.154 859.679 509.792 861.106Q509.43 862.534 509 863.943Q508.569 865.351 508.071 866.737Q507.573 868.123 507.008 869.484Q506.443 870.844 505.812 872.175Q505.182 873.506 504.488 874.805Q503.793 876.104 503.037 877.368Q502.281 878.632 501.464 879.857Q500.647 881.083 499.771 882.267Q498.896 883.452 497.964 884.592Q497.032 885.733 496.046 886.827Q495.06 887.921 494.022 888.966Q492.984 890.011 491.897 891.004Q490.809 891.998 489.675 892.937C476.115 903.964 459.427 907.345 442.315 905.48Q440.558 905.274 438.813 904.983Q437.068 904.692 435.339 904.315Q433.611 903.938 431.903 903.477Q430.194 903.016 428.511 902.472Q426.828 901.928 425.173 901.302Q423.518 900.675 421.896 899.969Q420.274 899.262 418.689 898.477Q417.104 897.692 415.559 896.83Q414.014 895.968 412.513 895.031Q411.012 894.094 409.559 893.085Q408.106 892.075 406.705 890.996Q405.303 889.917 403.956 888.77Q402.609 887.623 401.319 886.412Q400.03 885.2 398.802 883.927Q397.573 882.653 396.409 881.321Q395.245 879.99 394.147 878.602C388.044 870.955 383.694 861.792 381.031 852.398C383.176 854.713 384.796 858.531 386.629 861.242C393.738 871.758 402.685 879.115 414.604 883.734C428.585 889.152 445.361 888.798 459.038 882.619Q460.448 881.981 461.824 881.275Q463.201 880.568 464.54 879.794Q465.88 879.02 467.18 878.181Q468.48 877.341 469.737 876.439Q470.994 875.536 472.204 874.573Q473.415 873.609 474.576 872.586Q475.738 871.564 476.847 870.486Q477.956 869.407 479.011 868.275Q480.066 867.143 481.063 865.96Q482.06 864.777 482.998 863.546Q483.936 862.315 484.811 861.039Q485.687 859.764 486.498 858.446Q487.31 857.129 488.055 855.773Q488.8 854.417 489.477 853.026Q490.154 851.634 490.762 850.211Q491.37 848.788 491.906 847.337C497.611 831.925 497.101 815.883 490.225 800.983C488.943 798.204 486.239 791.747 483.236 790.648C480.536 787.353 477.592 784.237 474.737 781.076Z"/>
	<path fill="#210A39" d="M584.911 454.84C596.425 451.098 624.227 461.585 635.11 467.097C649.268 474.266 660.531 483.352 672.521 493.588C699.997 517.044 720.105 538.548 731.57 573.937C743.477 610.69 740.669 649.01 723.007 683.406C710.23 708.288 689.052 731.567 665.247 746.369C659.343 750.04 653.019 752.547 646.92 755.784C661.779 765.781 688.618 764.877 705.992 762.865C712.59 762.101 719.513 760.432 726.116 760.303C716.176 763.238 706.216 766.243 696.068 768.389C676.583 772.509 656.741 774.13 636.916 775.57Q637.87 798.201 637.961 820.851C638.24 847.647 639.149 866.113 626.488 891.049C622.231 899.434 617.148 907.37 610.816 914.344C588.842 938.545 556.03 952.472 523.577 953.906C487.943 955.48 456.521 942.343 429.32 920.117C426.802 918.06 419.134 912.524 417.505 910.585C417.309 910.352 417.232 910.041 417.095 909.769C426.937 914.413 436.49 918.707 447.062 921.479L446.677 922.095C458.789 928.483 487.954 926.084 500.964 922.941C533.657 915.042 561.52 896.09 579.113 867.317C582.028 861.693 584.622 856.097 586.559 850.057C595.669 828.594 595.238 788.87 591.295 765.938C590.887 757.631 588.249 748.983 586.965 740.718L587.742 740.519C591.828 738.293 596.717 736.755 601.08 735.066L601.046 732.28C616.385 724.947 630.735 716.169 643.865 705.342C674.601 679.997 699.551 638.092 703.443 598.186C705.936 572.182 702.76 547.331 690.794 523.813C678.183 499.025 650.927 472.489 624.088 463.725C615.044 458.033 595.513 455.254 584.911 454.84Z"/>
	<path fill="#AB547D" d="M446.677 922.095C458.789 928.483 487.954 926.084 500.964 922.941C533.657 915.042 561.52 896.09 579.113 867.317C581.559 869.557 584.387 871.297 587.424 872.624C572 899.644 546.203 915.318 516.723 923.367C496.578 928.866 474.251 930.61 453.875 925.309C451.571 924.71 447.882 924.067 445.88 922.789C445.623 922.625 445.398 922.414 445.157 922.227L446.677 922.095Z"/>
	<path fill="#EF8B27" d="M601.08 735.066C602.978 742.841 603.017 751.667 603.733 759.637C607.218 798.43 606.009 837.419 587.424 872.624C584.387 871.297 581.559 869.557 579.113 867.317C582.028 861.693 584.622 856.097 586.559 850.057C595.669 828.594 595.238 788.87 591.295 765.938C590.887 757.631 588.249 748.983 586.965 740.718L587.742 740.519C591.828 738.293 596.717 736.755 601.08 735.066Z"/>
	<path fill="#6ACEB7" d="M472.841 323.905C469.87 311.376 465.087 299.275 461.87 286.786Q460.988 283.401 460.223 279.987Q459.458 276.573 458.811 273.136Q458.164 269.698 457.636 266.239Q457.108 262.781 456.699 259.307Q456.29 255.832 456.001 252.346Q455.713 248.86 455.544 245.365Q455.376 241.871 455.327 238.373Q455.279 234.875 455.352 231.378Q455.424 227.88 455.617 224.387Q455.81 220.894 456.123 217.41Q456.436 213.926 456.869 210.454Q457.302 206.983 457.854 203.528Q458.407 200.074 459.077 196.641Q459.748 193.207 460.537 189.799Q461.326 186.391 462.232 183.012Q463.137 179.633 464.159 176.287C473.91 145.139 493.05 111.342 522.852 95.9562C541.131 86.5192 557.479 85.63 576.873 91.7541C581.829 94.0461 590.477 98.0431 594.119 102.159C594.145 102.337 594.149 102.52 594.197 102.693C594.79 104.788 603.075 114.033 604.769 116.448C606.104 118.352 607.116 120.446 608.143 122.527C626.371 159.46 621.511 195.957 604.896 232.246C588.708 267.604 562.618 296.41 534.346 322.549C527.51 328.87 520.392 336.101 512.603 341.215C512.118 337.875 510.804 334.275 509.918 330.991Q506.601 318.753 502.984 306.6C515.568 299.936 527.179 288.932 537.66 279.395C567.646 252.784 597.54 212.454 601.575 171.621C604.95 166.229 601.673 145.783 600.203 139.481C597.42 127.548 592.276 116.893 581.571 110.275C570.25 103.276 555.646 102.151 542.889 105.195C520.623 110.508 503.307 127.114 491.787 146.249C481.772 162.884 475.777 183.822 472.48 202.969C471.555 208.339 472.287 215.276 470.514 220.293C470.017 243.261 472.708 265.767 475.51 288.519C476.104 292.853 476.94 297.283 477.185 301.646L476.616 302.386C476.07 301.116 475.483 294.926 475.132 294.723C474.254 296.94 474.825 299.759 474.464 302.134C474.807 310.687 476.168 319.323 477.26 327.814C478.763 339.508 480.17 351.319 482.62 362.86C469.857 371.223 457.504 382.687 445.811 392.528C394.22 435.948 343.487 488.87 329.182 557.116C319.684 602.43 330.083 645.975 355.235 684.26C366.352 701.183 378.872 715.851 395.802 727.267C398.125 728.833 400.477 730.538 402.927 731.89C406.148 733.668 409.567 734.946 412.472 737.252C408.199 736.755 403.67 734.222 399.753 732.428C380.297 723.516 363.77 712.505 347.182 699.02C343.404 694.179 337.535 690.066 333.234 685.536Q328.228 680.308 323.658 674.694Q319.088 669.081 314.984 663.118Q310.88 657.155 307.269 650.881Q303.658 644.608 300.563 638.064C280.565 594.953 280.439 544.562 296.718 500.22C320.536 435.339 373.572 386.605 430.02 349.416C443.81 340.33 457.845 330.863 472.841 323.905Z"/>
	<path fill="#210A39" d="M472.504 284.467L473.76 284.761L474.047 285.64C474.409 286.716 474.911 287.561 475.51 288.519C476.104 292.853 476.94 297.283 477.185 301.646L476.616 302.386C476.07 301.116 475.483 294.926 475.132 294.723C474.254 296.94 474.825 299.759 474.464 302.134C473.507 296.335 472.899 290.332 472.504 284.467Z"/>
	<path fill="#140F2F" d="M470.514 220.293C470.017 243.261 472.708 265.767 475.51 288.519C474.911 287.561 474.409 286.716 474.047 285.64L473.76 284.761L472.504 284.467C470.925 273.399 467.161 229.298 470.514 220.293Z"/>
	<path fill="#210A39" d="M576.873 91.7541C587.111 91.2607 616.292 114.803 624.586 122.321C661.553 155.829 692.196 196.862 694.658 248.643C697.678 312.174 656.468 365.797 615.959 410.197C607.106 419.9 597.657 429.011 588.222 438.14C583.263 442.938 577.36 447.752 573.217 453.235L573.352 453.926C574.967 454.749 576.435 454.766 578.222 454.864C564.741 455.91 550.882 459.283 539.504 466.839C535.211 449.503 529.412 432.471 524.363 415.333Q513.547 378.775 504.62 341.711C502.283 333.595 500.433 325.259 498.371 317.065C493.703 298.517 489.413 280.513 487.17 261.481C486.308 255.69 486.271 249.65 486.271 243.798C486.267 216.111 493.617 190.66 509.173 167.677C520.782 150.527 539.958 134.163 560.846 130.316C569.647 128.694 578.434 129.792 585.872 135.115C595.563 142.05 598.847 152.402 600.818 163.63C601.186 166.307 601.47 168.917 601.575 171.621C597.54 212.454 567.646 252.784 537.66 279.395C527.179 288.932 515.568 299.936 502.984 306.6Q506.601 318.753 509.918 330.991C510.804 334.275 512.118 337.875 512.603 341.215C520.392 336.101 527.51 328.87 534.346 322.549C562.618 296.41 588.708 267.604 604.896 232.246C621.511 195.957 626.371 159.46 608.143 122.527C607.116 120.446 606.104 118.352 604.769 116.448C603.075 114.033 594.79 104.788 594.197 102.693C594.149 102.52 594.145 102.337 594.119 102.159C590.477 98.0431 581.829 94.0461 576.873 91.7541Z"/>
	<path fill="#AB547D" d="M565.075 133.158C570.308 132.678 575.191 133.282 580.028 135.372C588.794 139.159 593.866 146.077 597.325 154.648C596.023 153.145 594.716 151.57 593.253 150.223C587.671 145.086 580.086 143.374 572.705 143.756C558.223 144.507 542.789 152.341 533.166 163.104C527.615 169.313 523.725 176.921 520.21 184.413C506.962 212.65 502.353 242.616 504.119 273.624Q505.467 286.083 507.815 298.392C505.621 299.878 503.248 301.121 500.943 302.427C498.366 293.594 496.466 284.421 495.083 275.327C489.472 238.431 492.123 198.115 515.015 167.258C527.39 150.577 543.905 136.26 565.075 133.158Z"/>
	<path fill="#01526A" d="M600.818 163.63C601.186 166.307 601.47 168.917 601.575 171.621C597.54 212.454 567.646 252.784 537.66 279.395C535.43 270.285 535.66 259.777 536.575 250.505C539.689 218.97 555.485 190.871 582.182 173.479C585.586 171.262 599.456 164.97 600.535 163.96C600.641 163.861 600.724 163.74 600.818 163.63Z"/>
	<path fill="#AB547D" d="M598.922 106.12C603.328 106.056 612.065 114.891 615.1 117.83C643.511 145.342 659.552 181.411 660.102 221.127C660.985 284.836 620.697 341.682 578.01 385.298C564.585 399.015 550.428 411.716 535.896 424.234C532.243 413.305 529.689 402.128 526.352 391.13Q548.696 372.773 568.877 352.062C604.905 315.612 633.327 276.278 638.596 223.738C642.144 188.363 633.248 144.789 610.343 116.899C607.922 113.95 604.487 109.753 600.992 108.109C600.106 107.671 599.563 106.858 598.922 106.12Z"/>
	<path fill="#FEF5C1" d="M594.119 102.159C595.841 103.394 597.407 104.636 598.922 106.12C599.563 106.858 600.106 107.671 600.992 108.109C606.323 114.885 611.783 121.244 616.172 128.728C632.714 156.936 639.011 193.754 635.194 226.011C627.523 290.831 573.374 345.594 525.535 385.461C521.018 370.773 517.135 355.89 512.603 341.215C520.392 336.101 527.51 328.87 534.346 322.549C562.618 296.41 588.708 267.604 604.896 232.246C621.511 195.957 626.371 159.46 608.143 122.527C607.116 120.446 606.104 118.352 604.769 116.448C603.075 114.033 594.79 104.788 594.197 102.693C594.149 102.52 594.145 102.337 594.119 102.159Z"/>
	<path fill="#FEF5C1" d="M470.514 220.293C472.287 215.276 471.555 208.339 472.48 202.969C475.777 183.822 481.772 162.884 491.787 146.249C503.307 127.114 520.623 110.508 542.889 105.195C555.646 102.151 570.25 103.276 581.571 110.275C592.276 116.893 597.42 127.548 600.203 139.481C601.673 145.783 604.95 166.229 601.575 171.621C601.47 168.917 601.186 166.307 600.818 163.63C598.847 152.402 595.563 142.05 585.872 135.115C578.434 129.792 569.647 128.694 560.846 130.316C539.958 134.163 520.782 150.527 509.173 167.677C493.617 190.66 486.267 216.111 486.271 243.798C486.271 249.65 486.308 255.69 487.17 261.481C489.413 280.513 493.703 298.517 498.371 317.065C500.433 325.259 502.283 333.595 504.62 341.711Q513.547 378.775 524.363 415.333C529.412 432.471 535.211 449.503 539.504 466.839C550.882 459.283 564.741 455.91 578.222 454.864L584.911 454.84C595.513 455.254 615.044 458.033 624.088 463.725C650.927 472.489 678.183 499.025 690.794 523.813C702.76 547.331 705.936 572.182 703.443 598.186C699.551 638.092 674.601 679.997 643.865 705.342C630.735 716.169 616.385 724.947 601.046 732.28L601.08 735.066C596.717 736.755 591.828 738.293 587.742 740.519L586.965 740.718L584.809 741.548C579.466 743.441 574.135 745.333 568.718 747.006L567.336 745.357C541.395 754.736 515.51 755.452 488.313 754.43C483.761 754.737 476.561 754.012 472.27 752.488C470.942 752.015 470.975 751.814 470.43 750.589C452.646 750.37 428.516 744.377 412.472 737.252C409.567 734.946 406.148 733.668 402.927 731.89C400.477 730.538 398.125 728.833 395.802 727.267C378.872 715.851 366.352 701.183 355.235 684.26C330.083 645.975 319.684 602.43 329.182 557.116C343.487 488.87 394.22 435.948 445.811 392.528C457.504 382.687 469.857 371.223 482.62 362.86C480.17 351.319 478.763 339.508 477.26 327.814C476.168 319.323 474.807 310.687 474.464 302.134C474.825 299.759 474.254 296.94 475.132 294.723C475.483 294.926 476.07 301.116 476.616 302.386L477.185 301.646C476.94 297.283 476.104 292.853 475.51 288.519C472.708 265.767 470.017 243.261 470.514 220.293Z"/>
	<path fill="#441647" d="M490.368 751.221Q500.07 750.707 509.782 750.482C508.39 750.879 507.034 751.283 505.684 751.812L506.613 751.721C509.3 751.469 511.373 751.471 514.021 752.119C505.602 752.875 496.792 753.819 488.359 752.997L488.011 753.929L488.313 754.43C483.761 754.737 476.561 754.012 472.27 752.488C470.942 752.015 470.975 751.814 470.43 750.589C477.057 751.144 483.722 751.125 490.368 751.221Z"/>
	<path fill="#210A39" d="M646.301 602.55L647.519 601.436C650.606 629.195 640.609 660.936 623.209 682.679C622.653 683.373 622.087 684.159 621.453 684.778L620.112 684.202C624.679 679.959 630.43 669.217 633.182 663.611C640.932 647.824 643.436 631.889 637.681 614.999L638.362 612.753C642.161 622.606 642.08 632.64 642.136 643.019C645.189 629.071 647.352 616.879 646.301 602.55Z"/>
	<path fill="#210A39" d="M556.738 526.528C576.463 523.501 596.854 526.858 613.143 538.836C633.075 553.493 643.954 575.172 647.379 599.334C647.48 600.041 647.523 600.722 647.519 601.436L646.301 602.55C642.327 580.392 633.444 559.682 615.758 544.988C598.616 530.746 579.396 527.66 557.792 529.633L556.738 526.528Z"/>
	<path fill="#210A39" d="M624.931 493.871C628.307 493.584 643.268 505.421 646.257 507.939C668.49 526.671 684.899 556.09 687.463 585.246Q687.889 590.477 688.063 595.723C687.663 604.657 687.105 613.347 685.235 622.128C678.522 653.656 658.801 681.282 635.341 702.731C601.549 733.626 559.47 749.539 514.021 752.119C511.373 751.471 509.3 751.469 506.613 751.721L505.684 751.812C507.034 751.283 508.39 750.879 509.782 750.482C514.603 749.873 519.451 749.513 524.283 748.995Q526.585 748.763 528.881 748.474Q531.177 748.184 533.465 747.837Q535.753 747.49 538.031 747.086Q540.31 746.682 542.578 746.22Q544.845 745.759 547.101 745.241Q549.356 744.723 551.598 744.149Q553.839 743.574 556.066 742.944Q558.292 742.314 560.502 741.628Q562.712 740.942 564.905 740.2Q567.097 739.459 569.27 738.663Q571.443 737.867 573.595 737.017Q575.747 736.167 577.877 735.263Q580.007 734.359 582.114 733.402Q584.221 732.445 586.303 731.436Q588.386 730.426 590.442 729.365Q592.498 728.303 594.527 727.191Q596.556 726.078 598.557 724.915Q600.557 723.752 602.528 722.539Q604.499 721.326 606.438 720.064Q608.378 718.802 610.285 717.492Q612.193 716.181 614.067 714.824Q615.941 713.466 617.78 712.062Q619.62 710.658 621.423 709.208Q623.227 707.758 624.993 706.263Q626.76 704.769 628.488 703.23Q630.217 701.692 631.906 700.11Q633.596 698.529 635.245 696.906Q636.895 695.283 638.503 693.619Q640.111 691.955 641.677 690.251Q643.242 688.547 644.765 686.805Q646.288 685.062 647.766 683.282Q649.245 681.502 650.678 679.685C672.128 652.931 686.573 617.781 682.546 583.121C678.894 551.69 663.292 524.72 639.49 504.23C635.08 500.433 629.758 497.917 625.354 494.249C625.209 494.128 625.072 493.997 624.931 493.871Z"/>
	<defs>
		<linearGradient id="gradient_1" gradientUnits="userSpaceOnUse" x1="585.8736" y1="643.9978" x2="615.31714" y2="727.19214">
			<stop offset="0" stop-color="#C4556D"/>
			<stop offset="1" stop-color="#984E87"/>
		</linearGradient>
	</defs>
	<path fill="url(#gradient_1)" d="M688.063 595.723C688.158 596.005 688.26 596.284 688.347 596.569C689.247 599.507 688.802 603.821 688.569 606.878C689.157 607.442 698.128 610.08 699.146 610.089C699.93 610.096 700.18 609.664 700.745 609.2C702.313 606.012 702.047 601.98 703.344 598.48C703.38 598.383 703.41 598.284 703.443 598.186C699.551 638.092 674.601 679.997 643.865 705.342C630.735 716.169 616.385 724.947 601.046 732.28L601.08 735.066C596.717 736.755 591.828 738.293 587.742 740.519L586.965 740.718L584.809 741.548C579.466 743.441 574.135 745.333 568.718 747.006L567.336 745.357C541.395 754.736 515.51 755.452 488.313 754.43L488.011 753.929L488.359 752.997C496.792 753.819 505.602 752.875 514.021 752.119C559.47 749.539 601.549 733.626 635.341 702.731C658.801 681.282 678.522 653.656 685.235 622.128C687.105 613.347 687.663 604.657 688.063 595.723Z"/>
	<path fill="#210A39" d="M582.432 739.677C587.98 736.617 595.098 734.61 601.046 732.28L601.08 735.066C596.717 736.755 591.828 738.293 587.742 740.519L586.21 739.429C585.222 739.581 584.302 739.696 583.301 739.689L582.432 739.677Z"/>
	<path fill="#210A39" d="M582.432 739.677L583.301 739.689C584.302 739.696 585.222 739.581 586.21 739.429L587.742 740.519L586.965 740.718L584.809 741.548C579.466 743.441 574.135 745.333 568.718 747.006L567.336 745.357C572.415 743.628 577.259 741.126 582.432 739.677Z"/>
	<path fill="#AB547D" d="M557.792 529.633C579.396 527.66 598.616 530.746 615.758 544.988C633.444 559.682 642.327 580.392 646.301 602.55C647.352 616.879 645.189 629.071 642.136 643.019C642.08 632.64 642.161 622.606 638.362 612.753C636.056 599.373 617.94 577.43 607.556 568.773C596.081 559.207 579.075 549.307 563.526 550.779C561.311 545.172 558.708 535.603 557.792 529.633Z"/>
	<path fill="#EF8B27" d="M578.222 454.864L584.911 454.84C595.513 455.254 615.044 458.033 624.088 463.725C650.927 472.489 678.183 499.025 690.794 523.813C702.76 547.331 705.936 572.182 703.443 598.186C703.41 598.284 703.38 598.383 703.344 598.48C702.047 601.98 702.313 606.012 700.745 609.2C700.18 609.664 699.93 610.096 699.146 610.089C698.128 610.08 689.157 607.442 688.569 606.878C688.802 603.821 689.247 599.507 688.347 596.569C688.26 596.284 688.158 596.005 688.063 595.723Q687.889 590.477 687.463 585.246C684.899 556.09 668.49 526.671 646.257 507.939C643.268 505.421 628.307 493.584 624.931 493.871C620.661 492.111 616.587 489.641 612.326 487.769C606.558 485.234 600.605 483.301 594.674 481.201C580.951 478.122 555.728 474.077 542.625 477.924C541.72 474.204 540.557 470.521 539.504 466.839C550.882 459.283 564.741 455.91 578.222 454.864Z"/>
	<defs>
		<linearGradient id="gradient_2" gradientUnits="userSpaceOnUse" x1="575.75842" y1="473.64658" x2="564.34955" y2="453.30579">
			<stop offset="0" stop-color="#F7AC4E"/>
			<stop offset="1" stop-color="#FFD4A4"/>
		</linearGradient>
	</defs>
	<path fill="url(#gradient_2)" d="M578.222 454.864L584.911 454.84C595.513 455.254 615.044 458.033 624.088 463.725L623.394 464.056C619.119 462.548 605.235 456.81 601.27 457.916C598.933 458.567 594.505 463.863 591.863 465.404C586.661 468.439 574.556 472.27 570.952 475.284L571.1 476.009C577.28 478.306 589.653 476.806 594.674 481.201C580.951 478.122 555.728 474.077 542.625 477.924C541.72 474.204 540.557 470.521 539.504 466.839C550.882 459.283 564.741 455.91 578.222 454.864Z"/>
	<path fill="#210A39" d="M474.464 302.134C474.825 299.759 474.254 296.94 475.132 294.723C475.483 294.926 476.07 301.116 476.616 302.386L477.185 301.646C478.465 306.671 478.968 312.127 479.689 317.271Q481.421 329.876 483.324 342.456Q490.626 387.644 498.768 432.688C501.353 446.944 503.46 463.8 507.369 477.54C477.842 484.292 456.419 501.055 440.435 526.502C435.82 533.848 430.683 542.994 428.874 551.56L426.783 550.976C434.627 530.311 445.995 516.591 459.107 499.399C471.528 483.114 484.055 467.519 497.89 452.403C495.879 441.521 493.724 430.644 491.997 419.713C441.385 469.019 376.36 528.694 375.571 605.122C375.232 637.924 387.899 672.929 411.138 696.453C412.159 697.486 413.429 699.004 414.775 699.516C421.491 707.444 432.517 714.87 441.817 719.594C471.11 735.647 499.018 737.708 531.347 732.466C536.945 733.65 556.749 726.724 562.707 724.316C565.33 723.256 568.189 722.415 569.38 719.645C571.882 717.618 575.27 716.079 578.085 714.471C582.651 711.894 587.169 709.218 591.706 706.587C590.435 689.304 586.976 671.875 584.187 654.78C578.469 619.727 572.337 585.218 563.526 550.779C579.075 549.307 596.081 559.207 607.556 568.773C617.94 577.43 636.056 599.373 638.362 612.753L637.681 614.999C643.436 631.889 640.932 647.824 633.182 663.611C630.43 669.217 624.679 679.959 620.112 684.202L621.453 684.778C620.186 686.671 618.652 688.462 617.083 690.11C588.535 720.102 544.006 737.591 502.898 738.392C468.129 739.07 434.049 723.981 409.284 699.906C384.623 675.934 370.676 641.572 370.437 607.277C370.014 546.579 409.144 495.403 449.426 453.851C462.894 439.959 477.172 426.894 490.735 413.111C490.149 407.348 488.937 401.529 488.007 395.807L482.62 362.86C480.17 351.319 478.763 339.508 477.26 327.814C476.168 319.323 474.807 310.687 474.464 302.134Z"/>
	<path fill="#01526A" d="M600.633 586.81C606.46 588.229 612.06 590.088 617.391 592.87C627.197 597.987 634.277 604.273 637.681 614.999C643.436 631.889 640.932 647.824 633.182 663.611C630.43 669.217 624.679 679.959 620.112 684.202C617.987 680.966 603.088 598.013 600.633 586.81Z"/>
	<defs>
		<linearGradient id="gradient_3" gradientUnits="userSpaceOnUse" x1="398.33206" y1="527.40143" x2="518.81329" y2="602.28436">
			<stop offset="0" stop-color="#B94976"/>
			<stop offset="1" stop-color="#9D959C"/>
		</linearGradient>
	</defs>
	<path fill="url(#gradient_3)" d="M414.775 699.516C413.429 699.004 412.159 697.486 411.138 696.453C387.899 672.929 375.232 637.924 375.571 605.122C376.36 528.694 441.385 469.019 491.997 419.713C493.724 430.644 495.879 441.521 497.89 452.403C484.055 467.519 471.528 483.114 459.107 499.399C445.995 516.591 434.627 530.311 426.783 550.976L428.874 551.56C421.394 576.764 421.45 605.113 434.321 628.642C439.477 638.066 446.331 646.054 454.201 653.31L452.403 653.688C460.117 661.011 468.741 666.902 477.698 672.567C503.881 689.128 525.776 696.715 557.033 695.9L561.073 695.784C563.152 703.784 564.7 712.396 567.48 720.154C564.047 725.206 538.341 730.846 531.347 732.466C499.018 737.708 471.11 735.647 441.817 719.594C432.517 714.87 421.491 707.444 414.775 699.516Z"/>
	<path fill="#210A39" d="M426.783 550.976L428.874 551.56C421.394 576.764 421.45 605.113 434.321 628.642C439.477 638.066 446.331 646.054 454.201 653.31L452.403 653.688C440.233 641.629 433.032 631.211 426.681 615.203C424.329 647.694 428.814 680.338 450.912 705.811C454.798 710.291 458.856 714.829 463.532 718.493L463.389 719.214C458.772 717.648 454.415 715.33 450.04 713.196C449.272 712.2 446.976 711.109 445.87 710.363C438.844 705.63 432.726 700.071 426.692 694.162C422.989 688.417 418 683.674 414.516 677.601C397.782 648.433 396.9 617.756 410.852 587.302C414.218 579.953 419.161 573.366 422.383 566.067C424.455 561.374 425.44 555.935 426.783 550.976Z"/>
	<path fill="#01526A" d="M426.681 615.203C433.032 631.211 440.233 641.629 452.403 653.688C460.117 661.011 468.741 666.902 477.698 672.567C503.881 689.128 525.776 696.715 557.033 695.9L561.073 695.784C563.152 703.784 564.7 712.396 567.48 720.154C564.047 725.206 538.341 730.846 531.347 732.466C499.018 737.708 471.11 735.647 441.817 719.594C442.358 718.042 443.013 715.803 443.914 714.463C444.81 713.128 445.734 713.138 447.178 712.739C447.953 712.989 448.558 713.152 449.382 713.188C449.601 713.197 449.821 713.193 450.04 713.196C454.415 715.33 458.772 717.648 463.389 719.214L463.532 718.493C458.856 714.829 454.798 710.291 450.912 705.811C428.814 680.338 424.329 647.694 426.681 615.203Z"/>
	<path fill="#6ACEB7" d="M441.817 719.594C442.358 718.042 443.013 715.803 443.914 714.463C444.81 713.128 445.734 713.138 447.178 712.739C447.953 712.989 448.558 713.152 449.382 713.188C449.601 713.197 449.821 713.193 450.04 713.196C454.415 715.33 458.772 717.648 463.389 719.214C486.177 730.078 523.799 726.771 548.69 723.2C553.942 722.446 562.446 719.606 567.48 720.154C564.047 725.206 538.341 730.846 531.347 732.466C499.018 737.708 471.11 735.647 441.817 719.594Z"/>
	<path fill="#FEF5C1" d="M470.514 220.293C472.287 215.276 471.555 208.339 472.48 202.969C475.777 183.822 481.772 162.884 491.787 146.249C503.307 127.114 520.623 110.508 542.889 105.195C555.646 102.151 570.25 103.276 581.571 110.275C592.276 116.893 597.42 127.548 600.203 139.481C601.673 145.783 604.95 166.229 601.575 171.621C601.47 168.917 601.186 166.307 600.818 163.63C598.847 152.402 595.563 142.05 585.872 135.115C578.434 129.792 569.647 128.694 560.846 130.316C539.958 134.163 520.782 150.527 509.173 167.677C493.617 190.66 486.267 216.111 486.271 243.798C486.271 249.65 486.308 255.69 487.17 261.481C489.413 280.513 493.703 298.517 498.371 317.065C500.433 325.259 502.283 333.595 504.62 341.711Q513.547 378.775 524.363 415.333C529.412 432.471 535.211 449.503 539.504 466.839C540.557 470.521 541.72 474.204 542.625 477.924C547.405 494.112 551.296 510.535 556.738 526.528L557.792 529.633C558.708 535.603 561.311 545.172 563.526 550.779C572.337 585.218 578.469 619.727 584.187 654.78C586.976 671.875 590.435 689.304 591.706 706.587C587.169 709.218 582.651 711.894 578.085 714.471C575.27 716.079 571.882 717.618 569.38 719.645C568.189 722.415 565.33 723.256 562.707 724.316C556.749 726.724 536.945 733.65 531.347 732.466C538.341 730.846 564.047 725.206 567.48 720.154C564.7 712.396 563.152 703.784 561.073 695.784L557.033 695.9C525.776 696.715 503.881 689.128 477.698 672.567C468.741 666.902 460.117 661.011 452.403 653.688L454.201 653.31C446.331 646.054 439.477 638.066 434.321 628.642C421.45 605.113 421.394 576.764 428.874 551.56C430.683 542.994 435.82 533.848 440.435 526.502C456.419 501.055 477.842 484.292 507.369 477.54C503.46 463.8 501.353 446.944 498.768 432.688Q490.626 387.644 483.324 342.456Q481.421 329.876 479.689 317.271C478.968 312.127 478.465 306.671 477.185 301.646C476.94 297.283 476.104 292.853 475.51 288.519C472.708 265.767 470.017 243.261 470.514 220.293Z"/>
	<path fill="#FFBE5E" d="M487.17 261.481C489.413 280.513 493.703 298.517 498.371 317.065C500.433 325.259 502.283 333.595 504.62 341.711C503.898 343.469 503.557 345.058 503.306 346.94C500.37 333.998 482.625 270.5 487.17 261.481Z"/>
	<defs>
		<linearGradient id="gradient_4" gradientUnits="userSpaceOnUse" x1="505.06445" y1="686.25043" x2="555.28015" y2="556.58179">
			<stop offset="0" stop-color="#1C123B"/>
			<stop offset="1" stop-color="#360543"/>
		</linearGradient>
	</defs>
	<path fill="url(#gradient_4)" d="M532.025 672.806C529.783 672.005 527.545 671.191 525.364 670.236Q523.657 669.49 521.99 668.661Q520.322 667.831 518.698 666.921Q517.073 666.01 515.495 665.021Q513.917 664.031 512.39 662.965Q510.863 661.899 509.39 660.759Q507.917 659.619 506.503 658.407Q505.088 657.196 503.735 655.916Q502.381 654.637 501.093 653.292Q499.804 651.947 498.584 650.54Q497.363 649.134 496.213 647.669Q495.063 646.203 493.987 644.683Q492.911 643.163 491.911 641.592Q490.911 640.021 489.99 638.402Q489.069 636.783 488.228 635.121Q487.388 633.459 486.631 631.757Q485.874 630.056 485.201 628.319C478.767 611.582 479.304 594.891 486.638 578.528C493.266 563.742 507.283 548.272 522.624 542.362C523.249 543.168 523.605 544.072 524.031 544.994C523.872 545.168 523.717 545.345 523.554 545.516C520.546 548.682 515.061 550.625 511.515 553.455C496.409 565.512 484.739 584.413 484.628 604.149C484.523 622.644 492.328 639.387 505.296 652.325C515.204 662.21 528.729 669.798 542.503 672.582L543.673 673.489L544.333 672.402C549.383 674.996 554.254 679.507 558.425 683.313C555.941 676.077 554.189 668.453 552.209 661.063L554.106 660.41L564.934 702.887C566.351 708.328 567.343 714.445 569.38 719.645C568.189 722.415 565.33 723.256 562.707 724.316C556.749 726.724 536.945 733.65 531.347 732.466C538.341 730.846 564.047 725.206 567.48 720.154C564.7 712.396 563.152 703.784 561.073 695.784L557.033 695.9C525.776 696.715 503.881 689.128 477.698 672.567C468.741 666.902 460.117 661.011 452.403 653.688L454.201 653.31C458.728 656.671 463.088 660.517 467.826 663.556C487.58 676.224 510.904 679.522 533.774 676.152L540.483 675.128L532.025 672.806Z"/>
	<path fill="#AB547D" d="M524.031 544.994C524.899 553.243 527.801 561.684 530.05 569.636C516.081 578.683 504.727 591.076 501.166 607.736Q500.911 608.971 500.718 610.216Q500.525 611.462 500.393 612.715Q500.261 613.969 500.19 615.228Q500.12 616.486 500.112 617.747Q500.104 619.007 500.158 620.267Q500.212 621.526 500.327 622.781Q500.443 624.036 500.62 625.284Q500.798 626.532 501.036 627.77Q501.275 629.008 501.574 630.232Q501.873 631.457 502.232 632.665Q502.591 633.874 503.008 635.063Q503.426 636.252 503.902 637.419Q504.378 638.587 504.911 639.729Q505.444 640.872 506.032 641.986Q506.62 643.101 507.263 644.186Q507.905 645.27 508.6 646.322C514.888 655.841 523.343 662.032 533.24 667.427C536.221 669.052 539.816 670.536 542.503 672.582C528.729 669.798 515.204 662.21 505.296 652.325C492.328 639.387 484.523 622.644 484.628 604.149C484.739 584.413 496.409 565.512 511.515 553.455C515.061 550.625 520.546 548.682 523.554 545.516C523.717 545.345 523.872 545.168 524.031 544.994Z"/>
	<path fill="#210A39" d="M530.05 569.636L546.908 633.446C549.286 642.347 551.197 651.7 554.106 660.41L552.209 661.063C554.189 668.453 555.941 676.077 558.425 683.313C554.254 679.507 549.383 674.996 544.333 672.402L543.673 673.489L542.503 672.582C539.816 670.536 536.221 669.052 533.24 667.427C523.343 662.032 514.888 655.841 508.6 646.322Q507.905 645.27 507.263 644.186Q506.62 643.101 506.032 641.986Q505.444 640.872 504.911 639.729Q504.378 638.587 503.902 637.419Q503.426 636.252 503.008 635.063Q502.591 633.874 502.232 632.665Q501.873 631.457 501.574 630.232Q501.275 629.008 501.036 627.77Q500.798 626.532 500.62 625.284Q500.443 624.036 500.327 622.781Q500.212 621.526 500.158 620.267Q500.104 619.007 500.112 617.747Q500.12 616.486 500.19 615.228Q500.261 613.969 500.393 612.715Q500.525 611.462 500.718 610.216Q500.911 608.971 501.166 607.736C504.727 591.076 516.081 578.683 530.05 569.636Z"/>
	<path fill="#01526A" d="M544.333 672.402C542.178 670.165 540.429 668.053 539.097 665.199C532.765 651.626 535.997 631.881 541.011 618.389C544.318 632.715 549.009 646.713 552.209 661.063C554.189 668.453 555.941 676.077 558.425 683.313C554.254 679.507 549.383 674.996 544.333 672.402Z"/>
	<path fill="#EF8B27" d="M504.62 341.711Q513.547 378.775 524.363 415.333C529.412 432.471 535.211 449.503 539.504 466.839C540.557 470.521 541.72 474.204 542.625 477.924C547.405 494.112 551.296 510.535 556.738 526.528L557.792 529.633C558.708 535.603 561.311 545.172 563.526 550.779C572.337 585.218 578.469 619.727 584.187 654.78C586.976 671.875 590.435 689.304 591.706 706.587C587.169 709.218 582.651 711.894 578.085 714.471Q562.79 621.929 544.089 530.015Q525.388 438.101 503.306 346.94C503.557 345.058 503.898 343.469 504.62 341.711Z"/>
	<path fill="#6ACEB7" d="M507.369 477.54C508.081 481.304 508.89 484.991 509.882 488.691Q508.527 489.407 507.191 490.155Q505.854 490.904 504.536 491.685Q503.218 492.467 501.92 493.28Q500.622 494.094 499.344 494.939Q498.066 495.784 496.81 496.66Q495.553 497.537 494.319 498.444Q493.084 499.351 491.872 500.288Q490.66 501.225 489.471 502.192Q488.283 503.158 487.119 504.154Q485.954 505.15 484.814 506.174Q483.675 507.198 482.561 508.249Q481.447 509.301 480.359 510.38Q479.271 511.458 478.21 512.564Q477.149 513.669 476.116 514.8Q475.082 515.931 474.077 517.087Q473.072 518.243 472.095 519.423Q471.119 520.604 470.171 521.808Q469.224 523.012 468.307 524.239Q467.39 525.466 466.503 526.715Q465.616 527.965 464.76 529.235Q463.904 530.506 463.08 531.797Q462.256 533.089 461.463 534.4Q460.671 535.711 459.911 537.041Q459.151 538.372 458.424 539.72Q457.698 541.069 457.004 542.435Q456.311 543.801 455.651 545.184Q454.991 546.567 454.366 547.965Q453.741 549.364 453.15 550.777Q452.559 552.191 452.003 553.618Q451.447 555.046 450.927 556.487Q450.406 557.928 449.921 559.381Q449.436 560.834 448.987 562.299C441.773 586.581 442.09 615.088 454.5 637.668C463.419 653.897 477.751 664.757 495.521 669.768C506.722 672.926 520.46 675.119 532.025 672.806L540.483 675.128L533.774 676.152C510.904 679.522 487.58 676.224 467.826 663.556C463.088 660.517 458.728 656.671 454.201 653.31C446.331 646.054 439.477 638.066 434.321 628.642C421.45 605.113 421.394 576.764 428.874 551.56C430.683 542.994 435.82 533.848 440.435 526.502C456.419 501.055 477.842 484.292 507.369 477.54Z"/>
</svg>
